M48
;DRILL file {KiCad 4.0.7} date 04/13/20 17:23:12
;FORMAT={-:-/ absolute / metric / decimal}
FMAT,2
METRIC,TZ
T1C0.600
T2C0.800
T3C0.900
T4C1.100
T5C1.520
T6C2.500
T7C3.048
%
G90
G05
M71
T1
X172.624Y-78.096
X173.894Y-79.366
X175.164Y-78.096
X217.836Y-76.064
X219.106Y-74.794
X219.106Y-77.334
T2
X171.875Y-83.7
X179.495Y-83.7
X183.8Y-58.03
X183.8Y-60.57
X183.8Y-63.11
X183.8Y-65.65
X183.8Y-68.19
X183.8Y-70.73
X183.8Y-73.27
X183.8Y-75.81
X183.8Y-78.35
X183.8Y-80.89
X183.8Y-83.43
X183.8Y-85.97
X183.8Y-88.51
X183.8Y-91.05
X183.8Y-93.59
X192.71Y-48.98
X199.04Y-58.03
X199.04Y-60.57
X199.04Y-63.11
X199.04Y-65.65
X199.04Y-68.19
X199.04Y-70.73
X199.04Y-73.27
X199.04Y-75.81
X199.04Y-78.35
X199.04Y-80.89
X199.04Y-83.43
X199.04Y-85.97
X199.04Y-88.51
X199.04Y-91.05
X199.04Y-93.59
X199.99Y-40.99
X199.99Y-45.99
X200.33Y-48.98
X204.55Y-46.695
X204.55Y-49.235
X204.55Y-51.775
X205.39Y-86.732
X205.39Y-90.034
X205.39Y-93.336
X205.39Y-96.638
X205.644Y-58.284
X207.676Y-46.6
X213.01Y-86.732
X213.01Y-90.034
X213.01Y-93.336
X213.01Y-96.638
X213.264Y-58.284
X215.296Y-46.6
X217.5Y-62.6
X217.5Y-70.22
X219.75Y-51.575
X219.75Y-59.195
T3
X217.582Y-81.652
X217.582Y-86.224
X217.582Y-90.796
X217.582Y-95.368
X220.122Y-81.652
X220.122Y-86.224
X220.122Y-90.796
X220.122Y-95.368
T4
X164.55Y-57.6
X164.55Y-69.8
X170.55Y-71.8
X171.855Y-87.225
X176.55Y-57.6
X176.55Y-69.8
X179.475Y-87.225
X205.898Y-78.858
X205.898Y-83.358
X206.152Y-62.094
X206.152Y-66.594
X206.152Y-70.73
X206.152Y-75.23
X212.398Y-78.858
X212.398Y-83.358
X212.652Y-62.094
X212.652Y-66.594
X212.652Y-70.73
X212.652Y-75.23
X220.8Y-62.6
X220.8Y-70.22
T5
X209.9Y-52.125
X214.98Y-52.125
T6
X165.15Y-50.55
X176.35Y-50.8
T7
X163.Y-42.6
X163.Y-101.6
X222.Y-42.6
X222.Y-101.6
T0
M30
