G04 #@! TF.FileFunction,Legend,Top*
%FSLAX46Y46*%
G04 Gerber Fmt 4.6, Leading zero omitted, Abs format (unit mm)*
G04 Created by KiCad (PCBNEW 4.0.7) date 04/13/20 18:15:28*
%MOMM*%
%LPD*%
G01*
G04 APERTURE LIST*
%ADD10C,0.100000*%
%ADD11C,0.150000*%
%ADD12C,0.120000*%
%ADD13C,0.200000*%
G04 APERTURE END LIST*
D10*
D11*
X214661048Y-49465429D02*
X215422953Y-49465429D01*
X209073048Y-49465429D02*
X209834953Y-49465429D01*
X209454001Y-49846381D02*
X209454001Y-49084476D01*
X178766666Y-46017857D02*
X178814285Y-45970238D01*
X178957142Y-45922619D01*
X179052380Y-45922619D01*
X179195238Y-45970238D01*
X179290476Y-46065476D01*
X179338095Y-46160714D01*
X179385714Y-46351190D01*
X179385714Y-46494048D01*
X179338095Y-46684524D01*
X179290476Y-46779762D01*
X179195238Y-46875000D01*
X179052380Y-46922619D01*
X178957142Y-46922619D01*
X178814285Y-46875000D01*
X178766666Y-46827381D01*
X178147619Y-46922619D02*
X177957142Y-46922619D01*
X177861904Y-46875000D01*
X177766666Y-46779762D01*
X177719047Y-46589286D01*
X177719047Y-46255952D01*
X177766666Y-46065476D01*
X177861904Y-45970238D01*
X177957142Y-45922619D01*
X178147619Y-45922619D01*
X178242857Y-45970238D01*
X178338095Y-46065476D01*
X178385714Y-46255952D01*
X178385714Y-46589286D01*
X178338095Y-46779762D01*
X178242857Y-46875000D01*
X178147619Y-46922619D01*
X177290476Y-45922619D02*
X177290476Y-46922619D01*
X176719047Y-45922619D01*
X176719047Y-46922619D01*
X176242857Y-45922619D02*
X176242857Y-46922619D01*
X175671428Y-45922619D01*
X175671428Y-46922619D01*
X175195238Y-46446429D02*
X174861904Y-46446429D01*
X174719047Y-45922619D02*
X175195238Y-45922619D01*
X175195238Y-46922619D01*
X174719047Y-46922619D01*
X173719047Y-46017857D02*
X173766666Y-45970238D01*
X173909523Y-45922619D01*
X174004761Y-45922619D01*
X174147619Y-45970238D01*
X174242857Y-46065476D01*
X174290476Y-46160714D01*
X174338095Y-46351190D01*
X174338095Y-46494048D01*
X174290476Y-46684524D01*
X174242857Y-46779762D01*
X174147619Y-46875000D01*
X174004761Y-46922619D01*
X173909523Y-46922619D01*
X173766666Y-46875000D01*
X173719047Y-46827381D01*
X173433333Y-46922619D02*
X172861904Y-46922619D01*
X173147619Y-45922619D02*
X173147619Y-46922619D01*
X172528571Y-45922619D02*
X172528571Y-46922619D01*
X171861905Y-46922619D02*
X171671428Y-46922619D01*
X171576190Y-46875000D01*
X171480952Y-46779762D01*
X171433333Y-46589286D01*
X171433333Y-46255952D01*
X171480952Y-46065476D01*
X171576190Y-45970238D01*
X171671428Y-45922619D01*
X171861905Y-45922619D01*
X171957143Y-45970238D01*
X172052381Y-46065476D01*
X172100000Y-46255952D01*
X172100000Y-46589286D01*
X172052381Y-46779762D01*
X171957143Y-46875000D01*
X171861905Y-46922619D01*
X171004762Y-45922619D02*
X171004762Y-46922619D01*
X170433333Y-45922619D01*
X170433333Y-46922619D01*
X169338095Y-46922619D02*
X168766666Y-46922619D01*
X169052381Y-45922619D02*
X169052381Y-46922619D01*
X168242857Y-46922619D02*
X168052380Y-46922619D01*
X167957142Y-46875000D01*
X167861904Y-46779762D01*
X167814285Y-46589286D01*
X167814285Y-46255952D01*
X167861904Y-46065476D01*
X167957142Y-45970238D01*
X168052380Y-45922619D01*
X168242857Y-45922619D01*
X168338095Y-45970238D01*
X168433333Y-46065476D01*
X168480952Y-46255952D01*
X168480952Y-46589286D01*
X168433333Y-46779762D01*
X168338095Y-46875000D01*
X168242857Y-46922619D01*
X180123809Y-44272619D02*
X180123809Y-45272619D01*
X179790475Y-44558333D01*
X179457142Y-45272619D01*
X179457142Y-44272619D01*
X179028571Y-44558333D02*
X178552380Y-44558333D01*
X179123809Y-44272619D02*
X178790476Y-45272619D01*
X178457142Y-44272619D01*
X178123809Y-44272619D02*
X178123809Y-45272619D01*
X177647619Y-44272619D02*
X177647619Y-45272619D01*
X177076190Y-44272619D01*
X177076190Y-45272619D01*
X176647619Y-44320238D02*
X176504762Y-44272619D01*
X176266666Y-44272619D01*
X176171428Y-44320238D01*
X176123809Y-44367857D01*
X176076190Y-44463095D01*
X176076190Y-44558333D01*
X176123809Y-44653571D01*
X176171428Y-44701190D01*
X176266666Y-44748810D01*
X176457143Y-44796429D01*
X176552381Y-44844048D01*
X176600000Y-44891667D01*
X176647619Y-44986905D01*
X176647619Y-45082143D01*
X176600000Y-45177381D01*
X176552381Y-45225000D01*
X176457143Y-45272619D01*
X176219047Y-45272619D01*
X176076190Y-45225000D01*
X175647619Y-44367857D02*
X175600000Y-44320238D01*
X175647619Y-44272619D01*
X175695238Y-44320238D01*
X175647619Y-44367857D01*
X175647619Y-44272619D01*
X173742857Y-45272619D02*
X173504762Y-44272619D01*
X173314285Y-44986905D01*
X173123809Y-44272619D01*
X172885714Y-45272619D01*
X172552381Y-44558333D02*
X172076190Y-44558333D01*
X172647619Y-44272619D02*
X172314286Y-45272619D01*
X171980952Y-44272619D01*
X171076190Y-44272619D02*
X171409524Y-44748810D01*
X171647619Y-44272619D02*
X171647619Y-45272619D01*
X171266666Y-45272619D01*
X171171428Y-45225000D01*
X171123809Y-45177381D01*
X171076190Y-45082143D01*
X171076190Y-44939286D01*
X171123809Y-44844048D01*
X171171428Y-44796429D01*
X171266666Y-44748810D01*
X171647619Y-44748810D01*
X170647619Y-44272619D02*
X170647619Y-45272619D01*
X170076190Y-44272619D01*
X170076190Y-45272619D01*
X169600000Y-44272619D02*
X169600000Y-45272619D01*
X169123810Y-44272619D02*
X169123810Y-45272619D01*
X168552381Y-44272619D01*
X168552381Y-45272619D01*
X167552381Y-45225000D02*
X167647619Y-45272619D01*
X167790476Y-45272619D01*
X167933334Y-45225000D01*
X168028572Y-45129762D01*
X168076191Y-45034524D01*
X168123810Y-44844048D01*
X168123810Y-44701190D01*
X168076191Y-44510714D01*
X168028572Y-44415476D01*
X167933334Y-44320238D01*
X167790476Y-44272619D01*
X167695238Y-44272619D01*
X167552381Y-44320238D01*
X167504762Y-44367857D01*
X167504762Y-44701190D01*
X167695238Y-44701190D01*
X167076191Y-44367857D02*
X167028572Y-44320238D01*
X167076191Y-44272619D01*
X167123810Y-44320238D01*
X167076191Y-44367857D01*
X167076191Y-44272619D01*
X167076191Y-44653571D02*
X167123810Y-45225000D01*
X167076191Y-45272619D01*
X167028572Y-45225000D01*
X167076191Y-44653571D01*
X167076191Y-45272619D01*
X179266667Y-43146429D02*
X178933333Y-43146429D01*
X178790476Y-42622619D02*
X179266667Y-42622619D01*
X179266667Y-43622619D01*
X178790476Y-43622619D01*
X177885714Y-42622619D02*
X178361905Y-42622619D01*
X178361905Y-43622619D01*
X177552381Y-43146429D02*
X177219047Y-43146429D01*
X177076190Y-42622619D02*
X177552381Y-42622619D01*
X177552381Y-43622619D01*
X177076190Y-43622619D01*
X176076190Y-42717857D02*
X176123809Y-42670238D01*
X176266666Y-42622619D01*
X176361904Y-42622619D01*
X176504762Y-42670238D01*
X176600000Y-42765476D01*
X176647619Y-42860714D01*
X176695238Y-43051190D01*
X176695238Y-43194048D01*
X176647619Y-43384524D01*
X176600000Y-43479762D01*
X176504762Y-43575000D01*
X176361904Y-43622619D01*
X176266666Y-43622619D01*
X176123809Y-43575000D01*
X176076190Y-43527381D01*
X175790476Y-43622619D02*
X175219047Y-43622619D01*
X175504762Y-42622619D02*
X175504762Y-43622619D01*
X174314285Y-42622619D02*
X174647619Y-43098810D01*
X174885714Y-42622619D02*
X174885714Y-43622619D01*
X174504761Y-43622619D01*
X174409523Y-43575000D01*
X174361904Y-43527381D01*
X174314285Y-43432143D01*
X174314285Y-43289286D01*
X174361904Y-43194048D01*
X174409523Y-43146429D01*
X174504761Y-43098810D01*
X174885714Y-43098810D01*
X173695238Y-43622619D02*
X173504761Y-43622619D01*
X173409523Y-43575000D01*
X173314285Y-43479762D01*
X173266666Y-43289286D01*
X173266666Y-42955952D01*
X173314285Y-42765476D01*
X173409523Y-42670238D01*
X173504761Y-42622619D01*
X173695238Y-42622619D01*
X173790476Y-42670238D01*
X173885714Y-42765476D01*
X173933333Y-42955952D01*
X173933333Y-43289286D01*
X173885714Y-43479762D01*
X173790476Y-43575000D01*
X173695238Y-43622619D01*
X172266666Y-42717857D02*
X172314285Y-42670238D01*
X172457142Y-42622619D01*
X172552380Y-42622619D01*
X172695238Y-42670238D01*
X172790476Y-42765476D01*
X172838095Y-42860714D01*
X172885714Y-43051190D01*
X172885714Y-43194048D01*
X172838095Y-43384524D01*
X172790476Y-43479762D01*
X172695238Y-43575000D01*
X172552380Y-43622619D01*
X172457142Y-43622619D01*
X172314285Y-43575000D01*
X172266666Y-43527381D01*
X171838095Y-43622619D02*
X171838095Y-42813095D01*
X171790476Y-42717857D01*
X171742857Y-42670238D01*
X171647619Y-42622619D01*
X171457142Y-42622619D01*
X171361904Y-42670238D01*
X171314285Y-42717857D01*
X171266666Y-42813095D01*
X171266666Y-43622619D01*
X170933333Y-43622619D02*
X170361904Y-43622619D01*
X170647619Y-42622619D02*
X170647619Y-43622619D01*
X170028571Y-42622619D02*
X170028571Y-43622619D01*
X169361905Y-43622619D02*
X169171428Y-43622619D01*
X169076190Y-43575000D01*
X168980952Y-43479762D01*
X168933333Y-43289286D01*
X168933333Y-42955952D01*
X168980952Y-42765476D01*
X169076190Y-42670238D01*
X169171428Y-42622619D01*
X169361905Y-42622619D01*
X169457143Y-42670238D01*
X169552381Y-42765476D01*
X169600000Y-42955952D01*
X169600000Y-43289286D01*
X169552381Y-43479762D01*
X169457143Y-43575000D01*
X169361905Y-43622619D01*
X168504762Y-42622619D02*
X168504762Y-43622619D01*
X167933333Y-42622619D01*
X167933333Y-43622619D01*
X176457143Y-40972619D02*
X176457143Y-41972619D01*
X176457143Y-41496429D02*
X175885714Y-41496429D01*
X175885714Y-40972619D02*
X175885714Y-41972619D01*
X175457143Y-41258333D02*
X174980952Y-41258333D01*
X175552381Y-40972619D02*
X175219048Y-41972619D01*
X174885714Y-40972619D01*
X174647619Y-41972619D02*
X173980952Y-41972619D01*
X174647619Y-40972619D01*
X173980952Y-40972619D01*
X173647619Y-41258333D02*
X173171428Y-41258333D01*
X173742857Y-40972619D02*
X173409524Y-41972619D01*
X173076190Y-40972619D01*
X172171428Y-40972619D02*
X172504762Y-41448810D01*
X172742857Y-40972619D02*
X172742857Y-41972619D01*
X172361904Y-41972619D01*
X172266666Y-41925000D01*
X172219047Y-41877381D01*
X172171428Y-41782143D01*
X172171428Y-41639286D01*
X172219047Y-41544048D01*
X172266666Y-41496429D01*
X172361904Y-41448810D01*
X172742857Y-41448810D01*
X171742857Y-40972619D02*
X171742857Y-41972619D01*
X171504762Y-41972619D01*
X171361904Y-41925000D01*
X171266666Y-41829762D01*
X171219047Y-41734524D01*
X171171428Y-41544048D01*
X171171428Y-41401190D01*
X171219047Y-41210714D01*
X171266666Y-41115476D01*
X171361904Y-41020238D01*
X171504762Y-40972619D01*
X171742857Y-40972619D01*
X170742857Y-41067857D02*
X170695238Y-41020238D01*
X170742857Y-40972619D01*
X170790476Y-41020238D01*
X170742857Y-41067857D01*
X170742857Y-40972619D01*
X170742857Y-41353571D02*
X170790476Y-41925000D01*
X170742857Y-41972619D01*
X170695238Y-41925000D01*
X170742857Y-41353571D01*
X170742857Y-41972619D01*
X202885715Y-44932381D02*
X202409524Y-44932381D01*
X202409524Y-43932381D01*
X203219048Y-44932381D02*
X203219048Y-43932381D01*
X203552382Y-44646667D01*
X203885715Y-43932381D01*
X203885715Y-44932381D01*
X204266667Y-43932381D02*
X204885715Y-43932381D01*
X204552381Y-44313333D01*
X204695239Y-44313333D01*
X204790477Y-44360952D01*
X204838096Y-44408571D01*
X204885715Y-44503810D01*
X204885715Y-44741905D01*
X204838096Y-44837143D01*
X204790477Y-44884762D01*
X204695239Y-44932381D01*
X204409524Y-44932381D01*
X204314286Y-44884762D01*
X204266667Y-44837143D01*
X205790477Y-43932381D02*
X205314286Y-43932381D01*
X205266667Y-44408571D01*
X205314286Y-44360952D01*
X205409524Y-44313333D01*
X205647620Y-44313333D01*
X205742858Y-44360952D01*
X205790477Y-44408571D01*
X205838096Y-44503810D01*
X205838096Y-44741905D01*
X205790477Y-44837143D01*
X205742858Y-44884762D01*
X205647620Y-44932381D01*
X205409524Y-44932381D01*
X205314286Y-44884762D01*
X205266667Y-44837143D01*
X191766667Y-81914286D02*
X191766667Y-81438095D01*
X192052381Y-82009524D02*
X191052381Y-81676191D01*
X192052381Y-81342857D01*
X192052381Y-80438095D02*
X191576190Y-80771429D01*
X192052381Y-81009524D02*
X191052381Y-81009524D01*
X191052381Y-80628571D01*
X191100000Y-80533333D01*
X191147619Y-80485714D01*
X191242857Y-80438095D01*
X191385714Y-80438095D01*
X191480952Y-80485714D01*
X191528571Y-80533333D01*
X191576190Y-80628571D01*
X191576190Y-81009524D01*
X192052381Y-80009524D02*
X191052381Y-80009524D01*
X191052381Y-79771429D01*
X191100000Y-79628571D01*
X191195238Y-79533333D01*
X191290476Y-79485714D01*
X191480952Y-79438095D01*
X191623810Y-79438095D01*
X191814286Y-79485714D01*
X191909524Y-79533333D01*
X192004762Y-79628571D01*
X192052381Y-79771429D01*
X192052381Y-80009524D01*
X191052381Y-79009524D02*
X191861905Y-79009524D01*
X191957143Y-78961905D01*
X192004762Y-78914286D01*
X192052381Y-78819048D01*
X192052381Y-78628571D01*
X192004762Y-78533333D01*
X191957143Y-78485714D01*
X191861905Y-78438095D01*
X191052381Y-78438095D01*
X192052381Y-77961905D02*
X191052381Y-77961905D01*
X192052381Y-77485715D02*
X191052381Y-77485715D01*
X192052381Y-76914286D01*
X191052381Y-76914286D01*
X191052381Y-76247620D02*
X191052381Y-76057143D01*
X191100000Y-75961905D01*
X191195238Y-75866667D01*
X191385714Y-75819048D01*
X191719048Y-75819048D01*
X191909524Y-75866667D01*
X192004762Y-75961905D01*
X192052381Y-76057143D01*
X192052381Y-76247620D01*
X192004762Y-76342858D01*
X191909524Y-76438096D01*
X191719048Y-76485715D01*
X191385714Y-76485715D01*
X191195238Y-76438096D01*
X191100000Y-76342858D01*
X191052381Y-76247620D01*
X192052381Y-74628572D02*
X191052381Y-74628572D01*
X192052381Y-74057143D01*
X191052381Y-74057143D01*
X191766667Y-73628572D02*
X191766667Y-73152381D01*
X192052381Y-73723810D02*
X191052381Y-73390477D01*
X192052381Y-73057143D01*
X192052381Y-72723810D02*
X191052381Y-72723810D01*
X192052381Y-72152381D01*
X191052381Y-72152381D01*
X191052381Y-71485715D02*
X191052381Y-71295238D01*
X191100000Y-71200000D01*
X191195238Y-71104762D01*
X191385714Y-71057143D01*
X191719048Y-71057143D01*
X191909524Y-71104762D01*
X192004762Y-71200000D01*
X192052381Y-71295238D01*
X192052381Y-71485715D01*
X192004762Y-71580953D01*
X191909524Y-71676191D01*
X191719048Y-71723810D01*
X191385714Y-71723810D01*
X191195238Y-71676191D01*
X191100000Y-71580953D01*
X191052381Y-71485715D01*
X191052381Y-70009524D02*
X192052381Y-69676191D01*
X191052381Y-69342857D01*
X191052381Y-69104762D02*
X191052381Y-68485714D01*
X191433333Y-68819048D01*
X191433333Y-68676190D01*
X191480952Y-68580952D01*
X191528571Y-68533333D01*
X191623810Y-68485714D01*
X191861905Y-68485714D01*
X191957143Y-68533333D01*
X192004762Y-68580952D01*
X192052381Y-68676190D01*
X192052381Y-68961905D01*
X192004762Y-69057143D01*
X191957143Y-69104762D01*
X171187619Y-92726762D02*
X171330476Y-92774381D01*
X171568572Y-92774381D01*
X171663810Y-92726762D01*
X171711429Y-92679143D01*
X171759048Y-92583905D01*
X171759048Y-92488667D01*
X171711429Y-92393429D01*
X171663810Y-92345810D01*
X171568572Y-92298190D01*
X171378095Y-92250571D01*
X171282857Y-92202952D01*
X171235238Y-92155333D01*
X171187619Y-92060095D01*
X171187619Y-91964857D01*
X171235238Y-91869619D01*
X171282857Y-91822000D01*
X171378095Y-91774381D01*
X171616191Y-91774381D01*
X171759048Y-91822000D01*
X172187619Y-92774381D02*
X172187619Y-91774381D01*
X172663809Y-92774381D02*
X172663809Y-91774381D01*
X172997143Y-92488667D01*
X173330476Y-91774381D01*
X173330476Y-92774381D01*
X173806666Y-92774381D02*
X173806666Y-91774381D01*
X174187619Y-91774381D01*
X174282857Y-91822000D01*
X174330476Y-91869619D01*
X174378095Y-91964857D01*
X174378095Y-92107714D01*
X174330476Y-92202952D01*
X174282857Y-92250571D01*
X174187619Y-92298190D01*
X173806666Y-92298190D01*
X175282857Y-92774381D02*
X174806666Y-92774381D01*
X174806666Y-91774381D01*
X175616190Y-92250571D02*
X175949524Y-92250571D01*
X176092381Y-92774381D02*
X175616190Y-92774381D01*
X175616190Y-91774381D01*
X176092381Y-91774381D01*
X168592381Y-93424381D02*
X169163810Y-93424381D01*
X168878095Y-94424381D02*
X168878095Y-93424381D01*
X169497143Y-93900571D02*
X169830477Y-93900571D01*
X169973334Y-94424381D02*
X169497143Y-94424381D01*
X169497143Y-93424381D01*
X169973334Y-93424381D01*
X170401905Y-94424381D02*
X170401905Y-93424381D01*
X170735239Y-94138667D01*
X171068572Y-93424381D01*
X171068572Y-94424381D01*
X171544762Y-94424381D02*
X171544762Y-93424381D01*
X171925715Y-93424381D01*
X172020953Y-93472000D01*
X172068572Y-93519619D01*
X172116191Y-93614857D01*
X172116191Y-93757714D01*
X172068572Y-93852952D01*
X172020953Y-93900571D01*
X171925715Y-93948190D01*
X171544762Y-93948190D01*
X172544762Y-93900571D02*
X172878096Y-93900571D01*
X173020953Y-94424381D02*
X172544762Y-94424381D01*
X172544762Y-93424381D01*
X173020953Y-93424381D01*
X174020953Y-94424381D02*
X173687619Y-93948190D01*
X173449524Y-94424381D02*
X173449524Y-93424381D01*
X173830477Y-93424381D01*
X173925715Y-93472000D01*
X173973334Y-93519619D01*
X174020953Y-93614857D01*
X174020953Y-93757714D01*
X173973334Y-93852952D01*
X173925715Y-93900571D01*
X173830477Y-93948190D01*
X173449524Y-93948190D01*
X174401905Y-94138667D02*
X174878096Y-94138667D01*
X174306667Y-94424381D02*
X174640000Y-93424381D01*
X174973334Y-94424381D01*
X175163810Y-93424381D02*
X175735239Y-93424381D01*
X175449524Y-94424381D02*
X175449524Y-93424381D01*
X176068572Y-93424381D02*
X176068572Y-94233905D01*
X176116191Y-94329143D01*
X176163810Y-94376762D01*
X176259048Y-94424381D01*
X176449525Y-94424381D01*
X176544763Y-94376762D01*
X176592382Y-94329143D01*
X176640001Y-94233905D01*
X176640001Y-93424381D01*
X177687620Y-94424381D02*
X177354286Y-93948190D01*
X177116191Y-94424381D02*
X177116191Y-93424381D01*
X177497144Y-93424381D01*
X177592382Y-93472000D01*
X177640001Y-93519619D01*
X177687620Y-93614857D01*
X177687620Y-93757714D01*
X177640001Y-93852952D01*
X177592382Y-93900571D01*
X177497144Y-93948190D01*
X177116191Y-93948190D01*
X178116191Y-93900571D02*
X178449525Y-93900571D01*
X178592382Y-94424381D02*
X178116191Y-94424381D01*
X178116191Y-93424381D01*
X178592382Y-93424381D01*
X168044762Y-95979143D02*
X167997143Y-96026762D01*
X167854286Y-96074381D01*
X167759048Y-96074381D01*
X167616190Y-96026762D01*
X167520952Y-95931524D01*
X167473333Y-95836286D01*
X167425714Y-95645810D01*
X167425714Y-95502952D01*
X167473333Y-95312476D01*
X167520952Y-95217238D01*
X167616190Y-95122000D01*
X167759048Y-95074381D01*
X167854286Y-95074381D01*
X167997143Y-95122000D01*
X168044762Y-95169619D01*
X168663809Y-95074381D02*
X168854286Y-95074381D01*
X168949524Y-95122000D01*
X169044762Y-95217238D01*
X169092381Y-95407714D01*
X169092381Y-95741048D01*
X169044762Y-95931524D01*
X168949524Y-96026762D01*
X168854286Y-96074381D01*
X168663809Y-96074381D01*
X168568571Y-96026762D01*
X168473333Y-95931524D01*
X168425714Y-95741048D01*
X168425714Y-95407714D01*
X168473333Y-95217238D01*
X168568571Y-95122000D01*
X168663809Y-95074381D01*
X169520952Y-96074381D02*
X169520952Y-95074381D01*
X170092381Y-96074381D01*
X170092381Y-95074381D01*
X170425714Y-95074381D02*
X170997143Y-95074381D01*
X170711428Y-96074381D02*
X170711428Y-95074381D01*
X171901905Y-96074381D02*
X171568571Y-95598190D01*
X171330476Y-96074381D02*
X171330476Y-95074381D01*
X171711429Y-95074381D01*
X171806667Y-95122000D01*
X171854286Y-95169619D01*
X171901905Y-95264857D01*
X171901905Y-95407714D01*
X171854286Y-95502952D01*
X171806667Y-95550571D01*
X171711429Y-95598190D01*
X171330476Y-95598190D01*
X172520952Y-95074381D02*
X172711429Y-95074381D01*
X172806667Y-95122000D01*
X172901905Y-95217238D01*
X172949524Y-95407714D01*
X172949524Y-95741048D01*
X172901905Y-95931524D01*
X172806667Y-96026762D01*
X172711429Y-96074381D01*
X172520952Y-96074381D01*
X172425714Y-96026762D01*
X172330476Y-95931524D01*
X172282857Y-95741048D01*
X172282857Y-95407714D01*
X172330476Y-95217238D01*
X172425714Y-95122000D01*
X172520952Y-95074381D01*
X173854286Y-96074381D02*
X173378095Y-96074381D01*
X173378095Y-95074381D01*
X174663810Y-96074381D02*
X174187619Y-96074381D01*
X174187619Y-95074381D01*
X174997143Y-95550571D02*
X175330477Y-95550571D01*
X175473334Y-96074381D02*
X174997143Y-96074381D01*
X174997143Y-95074381D01*
X175473334Y-95074381D01*
X176473334Y-96074381D02*
X176140000Y-95598190D01*
X175901905Y-96074381D02*
X175901905Y-95074381D01*
X176282858Y-95074381D01*
X176378096Y-95122000D01*
X176425715Y-95169619D01*
X176473334Y-95264857D01*
X176473334Y-95407714D01*
X176425715Y-95502952D01*
X176378096Y-95550571D01*
X176282858Y-95598190D01*
X175901905Y-95598190D01*
X177997144Y-95550571D02*
X178140001Y-95598190D01*
X178187620Y-95645810D01*
X178235239Y-95741048D01*
X178235239Y-95883905D01*
X178187620Y-95979143D01*
X178140001Y-96026762D01*
X178044763Y-96074381D01*
X177663810Y-96074381D01*
X177663810Y-95074381D01*
X177997144Y-95074381D01*
X178092382Y-95122000D01*
X178140001Y-95169619D01*
X178187620Y-95264857D01*
X178187620Y-95360095D01*
X178140001Y-95455333D01*
X178092382Y-95502952D01*
X177997144Y-95550571D01*
X177663810Y-95550571D01*
X178854286Y-95598190D02*
X178854286Y-96074381D01*
X178520953Y-95074381D02*
X178854286Y-95598190D01*
X179187620Y-95074381D01*
X170282857Y-97724381D02*
X170282857Y-96724381D01*
X170520952Y-96724381D01*
X170663810Y-96772000D01*
X170759048Y-96867238D01*
X170806667Y-96962476D01*
X170854286Y-97152952D01*
X170854286Y-97295810D01*
X170806667Y-97486286D01*
X170759048Y-97581524D01*
X170663810Y-97676762D01*
X170520952Y-97724381D01*
X170282857Y-97724381D01*
X171282857Y-97629143D02*
X171330476Y-97676762D01*
X171282857Y-97724381D01*
X171235238Y-97676762D01*
X171282857Y-97629143D01*
X171282857Y-97724381D01*
X172520952Y-97724381D02*
X172520952Y-96724381D01*
X172854286Y-97438667D01*
X173187619Y-96724381D01*
X173187619Y-97724381D01*
X173616190Y-97438667D02*
X174092381Y-97438667D01*
X173520952Y-97724381D02*
X173854285Y-96724381D01*
X174187619Y-97724381D01*
X175092381Y-97724381D02*
X174759047Y-97248190D01*
X174520952Y-97724381D02*
X174520952Y-96724381D01*
X174901905Y-96724381D01*
X174997143Y-96772000D01*
X175044762Y-96819619D01*
X175092381Y-96914857D01*
X175092381Y-97057714D01*
X175044762Y-97152952D01*
X174997143Y-97200571D01*
X174901905Y-97248190D01*
X174520952Y-97248190D01*
X175520952Y-97724381D02*
X175520952Y-96724381D01*
X176092381Y-97724381D02*
X175663809Y-97152952D01*
X176092381Y-96724381D02*
X175520952Y-97295810D01*
X176473333Y-97676762D02*
X176616190Y-97724381D01*
X176854286Y-97724381D01*
X176949524Y-97676762D01*
X176997143Y-97629143D01*
X177044762Y-97533905D01*
X177044762Y-97438667D01*
X176997143Y-97343429D01*
X176949524Y-97295810D01*
X176854286Y-97248190D01*
X176663809Y-97200571D01*
X176568571Y-97152952D01*
X176520952Y-97105333D01*
X176473333Y-97010095D01*
X176473333Y-96914857D01*
X176520952Y-96819619D01*
X176568571Y-96772000D01*
X176663809Y-96724381D01*
X176901905Y-96724381D01*
X177044762Y-96772000D01*
X168806667Y-99279143D02*
X168759048Y-99326762D01*
X168616191Y-99374381D01*
X168520953Y-99374381D01*
X168378095Y-99326762D01*
X168282857Y-99231524D01*
X168235238Y-99136286D01*
X168187619Y-98945810D01*
X168187619Y-98802952D01*
X168235238Y-98612476D01*
X168282857Y-98517238D01*
X168378095Y-98422000D01*
X168520953Y-98374381D01*
X168616191Y-98374381D01*
X168759048Y-98422000D01*
X168806667Y-98469619D01*
X169806667Y-99279143D02*
X169759048Y-99326762D01*
X169616191Y-99374381D01*
X169520953Y-99374381D01*
X169378095Y-99326762D01*
X169282857Y-99231524D01*
X169235238Y-99136286D01*
X169187619Y-98945810D01*
X169187619Y-98802952D01*
X169235238Y-98612476D01*
X169282857Y-98517238D01*
X169378095Y-98422000D01*
X169520953Y-98374381D01*
X169616191Y-98374381D01*
X169759048Y-98422000D01*
X169806667Y-98469619D01*
X170235238Y-98993429D02*
X170997143Y-98993429D01*
X171806667Y-98850571D02*
X171949524Y-98898190D01*
X171997143Y-98945810D01*
X172044762Y-99041048D01*
X172044762Y-99183905D01*
X171997143Y-99279143D01*
X171949524Y-99326762D01*
X171854286Y-99374381D01*
X171473333Y-99374381D01*
X171473333Y-98374381D01*
X171806667Y-98374381D01*
X171901905Y-98422000D01*
X171949524Y-98469619D01*
X171997143Y-98564857D01*
X171997143Y-98660095D01*
X171949524Y-98755333D01*
X171901905Y-98802952D01*
X171806667Y-98850571D01*
X171473333Y-98850571D01*
X172663809Y-98898190D02*
X172663809Y-99374381D01*
X172330476Y-98374381D02*
X172663809Y-98898190D01*
X172997143Y-98374381D01*
X173330476Y-98993429D02*
X174092381Y-98993429D01*
X174520952Y-99326762D02*
X174663809Y-99374381D01*
X174901905Y-99374381D01*
X174997143Y-99326762D01*
X175044762Y-99279143D01*
X175092381Y-99183905D01*
X175092381Y-99088667D01*
X175044762Y-98993429D01*
X174997143Y-98945810D01*
X174901905Y-98898190D01*
X174711428Y-98850571D01*
X174616190Y-98802952D01*
X174568571Y-98755333D01*
X174520952Y-98660095D01*
X174520952Y-98564857D01*
X174568571Y-98469619D01*
X174616190Y-98422000D01*
X174711428Y-98374381D01*
X174949524Y-98374381D01*
X175092381Y-98422000D01*
X175473333Y-99088667D02*
X175949524Y-99088667D01*
X175378095Y-99374381D02*
X175711428Y-98374381D01*
X176044762Y-99374381D01*
X177568572Y-98707714D02*
X177568572Y-99374381D01*
X177330476Y-98326762D02*
X177092381Y-99041048D01*
X177711429Y-99041048D01*
X178092381Y-99279143D02*
X178140000Y-99326762D01*
X178092381Y-99374381D01*
X178044762Y-99326762D01*
X178092381Y-99279143D01*
X178092381Y-99374381D01*
X178759047Y-98374381D02*
X178854286Y-98374381D01*
X178949524Y-98422000D01*
X178997143Y-98469619D01*
X179044762Y-98564857D01*
X179092381Y-98755333D01*
X179092381Y-98993429D01*
X179044762Y-99183905D01*
X178997143Y-99279143D01*
X178949524Y-99326762D01*
X178854286Y-99374381D01*
X178759047Y-99374381D01*
X178663809Y-99326762D01*
X178616190Y-99279143D01*
X178568571Y-99183905D01*
X178520952Y-98993429D01*
X178520952Y-98755333D01*
X178568571Y-98564857D01*
X178616190Y-98469619D01*
X178663809Y-98422000D01*
X178759047Y-98374381D01*
D12*
X172475000Y-82720000D02*
X172475000Y-82390000D01*
X172475000Y-82390000D02*
X178895000Y-82390000D01*
X178895000Y-82390000D02*
X178895000Y-82720000D01*
X172475000Y-84680000D02*
X172475000Y-85010000D01*
X172475000Y-85010000D02*
X178895000Y-85010000D01*
X178895000Y-85010000D02*
X178895000Y-84680000D01*
D13*
X161200000Y-55900000D02*
X161200000Y-74900000D01*
X161200000Y-74900000D02*
X177200000Y-74900000D01*
X177200000Y-55900000D02*
X177200000Y-74900000D01*
X161200000Y-55900000D02*
X177200000Y-55900000D01*
X164247000Y-60836000D02*
X168184000Y-60836000D01*
X169073000Y-62868000D02*
X169073000Y-71758000D01*
X175042000Y-64900000D02*
X175042000Y-69853000D01*
X175042000Y-64900000D02*
X173137000Y-64900000D01*
X169081000Y-62900000D02*
X167581000Y-59400000D01*
X173200000Y-66900000D02*
X173200000Y-62900000D01*
X173200000Y-62900000D02*
X170200000Y-62900000D01*
X170200000Y-62900000D02*
X170200000Y-66900000D01*
X170200000Y-66900000D02*
X173200000Y-66900000D01*
X170200000Y-64900000D02*
X164200000Y-64900000D01*
X164200000Y-64900000D02*
X164200000Y-67900000D01*
X175057000Y-59773000D02*
X175057000Y-60773000D01*
X175057000Y-60900000D02*
X172057000Y-60900000D01*
X164200000Y-60900000D02*
X164200000Y-59900000D01*
D11*
X195230000Y-54220000D02*
X200310000Y-54220000D01*
X182530000Y-54220000D02*
X187610000Y-54220000D01*
X187610000Y-52315000D02*
X195230000Y-52315000D01*
X195230000Y-52315000D02*
X195230000Y-60570000D01*
X195230000Y-60570000D02*
X187610000Y-60570000D01*
X187610000Y-60570000D02*
X187610000Y-52315000D01*
X192055000Y-96130000D02*
G75*
G03X192055000Y-96130000I-635000J0D01*
G01*
X194595000Y-96130000D02*
G75*
G03X194595000Y-96130000I-635000J0D01*
G01*
X194595000Y-93590000D02*
G75*
G03X194595000Y-93590000I-635000J0D01*
G01*
X192055000Y-93590000D02*
G75*
G03X192055000Y-93590000I-635000J0D01*
G01*
X189515000Y-93590000D02*
G75*
G03X189515000Y-93590000I-635000J0D01*
G01*
X189515000Y-96130000D02*
G75*
G03X189515000Y-96130000I-635000J0D01*
G01*
X199675000Y-55490000D02*
G75*
G03X199675000Y-55490000I-635000J0D01*
G01*
X184435000Y-55490000D02*
G75*
G03X184435000Y-55490000I-635000J0D01*
G01*
X199675000Y-96130000D02*
G75*
G03X199675000Y-96130000I-635000J0D01*
G01*
X184435000Y-96130000D02*
G75*
G03X184435000Y-96130000I-635000J0D01*
G01*
X187610000Y-94860000D02*
X190150000Y-94860000D01*
X190150000Y-94860000D02*
X190150000Y-97400000D01*
X187610000Y-92320000D02*
X187610000Y-97400000D01*
X195230000Y-97400000D02*
X195230000Y-92320000D01*
X195230000Y-92320000D02*
X187610000Y-92320000D01*
X182530000Y-97400000D02*
X200310000Y-97400000D01*
X200310000Y-97400000D02*
X200310000Y-54220000D01*
X182530000Y-54220000D02*
X182530000Y-97400000D01*
D12*
X220524335Y-94289392D02*
G75*
G03X217292000Y-94132484I-1672335J-1078608D01*
G01*
X220524335Y-96446608D02*
G75*
G02X217292000Y-96603516I-1672335J1078608D01*
G01*
X219893130Y-94288163D02*
G75*
G03X217811039Y-94288000I-1041130J-1079837D01*
G01*
X219893130Y-96447837D02*
G75*
G02X217811039Y-96448000I-1041130J1079837D01*
G01*
X217292000Y-94132000D02*
X217292000Y-94288000D01*
X217292000Y-96448000D02*
X217292000Y-96604000D01*
X220524335Y-89717392D02*
G75*
G03X217292000Y-89560484I-1672335J-1078608D01*
G01*
X220524335Y-91874608D02*
G75*
G02X217292000Y-92031516I-1672335J1078608D01*
G01*
X219893130Y-89716163D02*
G75*
G03X217811039Y-89716000I-1041130J-1079837D01*
G01*
X219893130Y-91875837D02*
G75*
G02X217811039Y-91876000I-1041130J1079837D01*
G01*
X217292000Y-89560000D02*
X217292000Y-89716000D01*
X217292000Y-91876000D02*
X217292000Y-92032000D01*
X220524335Y-85145392D02*
G75*
G03X217292000Y-84988484I-1672335J-1078608D01*
G01*
X220524335Y-87302608D02*
G75*
G02X217292000Y-87459516I-1672335J1078608D01*
G01*
X219893130Y-85144163D02*
G75*
G03X217811039Y-85144000I-1041130J-1079837D01*
G01*
X219893130Y-87303837D02*
G75*
G02X217811039Y-87304000I-1041130J1079837D01*
G01*
X217292000Y-84988000D02*
X217292000Y-85144000D01*
X217292000Y-87304000D02*
X217292000Y-87460000D01*
X217520000Y-54665000D02*
X207360000Y-54665000D01*
X217520000Y-55935000D02*
X217520000Y-48315000D01*
X217520000Y-48315000D02*
X207360000Y-48315000D01*
X207360000Y-48315000D02*
X207360000Y-55935000D01*
X207360000Y-55935000D02*
X217520000Y-55935000D01*
X220956000Y-77864000D02*
X220956000Y-74264000D01*
X220944478Y-77902478D02*
G75*
G02X216506000Y-76064000I-1838478J1838478D01*
G01*
X220944478Y-74225522D02*
G75*
G03X216506000Y-76064000I-1838478J-1838478D01*
G01*
X199730000Y-49960000D02*
X199730000Y-50290000D01*
X199730000Y-50290000D02*
X193310000Y-50290000D01*
X193310000Y-50290000D02*
X193310000Y-49960000D01*
X199730000Y-48000000D02*
X199730000Y-47670000D01*
X199730000Y-47670000D02*
X193310000Y-47670000D01*
X193310000Y-47670000D02*
X193310000Y-48000000D01*
X218480000Y-63200000D02*
X218810000Y-63200000D01*
X218810000Y-63200000D02*
X218810000Y-69620000D01*
X218810000Y-69620000D02*
X218480000Y-69620000D01*
X216520000Y-63200000D02*
X216190000Y-63200000D01*
X216190000Y-63200000D02*
X216190000Y-69620000D01*
X216190000Y-69620000D02*
X216520000Y-69620000D01*
X206244000Y-57304000D02*
X206244000Y-56974000D01*
X206244000Y-56974000D02*
X212664000Y-56974000D01*
X212664000Y-56974000D02*
X212664000Y-57304000D01*
X206244000Y-59264000D02*
X206244000Y-59594000D01*
X206244000Y-59594000D02*
X212664000Y-59594000D01*
X212664000Y-59594000D02*
X212664000Y-59264000D01*
X220730000Y-52175000D02*
X221060000Y-52175000D01*
X221060000Y-52175000D02*
X221060000Y-58595000D01*
X221060000Y-58595000D02*
X220730000Y-58595000D01*
X218770000Y-52175000D02*
X218440000Y-52175000D01*
X218440000Y-52175000D02*
X218440000Y-58595000D01*
X218440000Y-58595000D02*
X218770000Y-58595000D01*
X206898000Y-84358000D02*
X211398000Y-84358000D01*
X205648000Y-80358000D02*
X205648000Y-81858000D01*
X211398000Y-77858000D02*
X206898000Y-77858000D01*
X212648000Y-81858000D02*
X212648000Y-80358000D01*
X207152000Y-76230000D02*
X211652000Y-76230000D01*
X205902000Y-72230000D02*
X205902000Y-73730000D01*
X211652000Y-69730000D02*
X207152000Y-69730000D01*
X212902000Y-73730000D02*
X212902000Y-72230000D01*
X207152000Y-67594000D02*
X211652000Y-67594000D01*
X205902000Y-63594000D02*
X205902000Y-65094000D01*
X211652000Y-61094000D02*
X207152000Y-61094000D01*
X212902000Y-65094000D02*
X212902000Y-63594000D01*
X205990000Y-95658000D02*
X205990000Y-95328000D01*
X205990000Y-95328000D02*
X212410000Y-95328000D01*
X212410000Y-95328000D02*
X212410000Y-95658000D01*
X205990000Y-97618000D02*
X205990000Y-97948000D01*
X205990000Y-97948000D02*
X212410000Y-97948000D01*
X212410000Y-97948000D02*
X212410000Y-97618000D01*
X205990000Y-92356000D02*
X205990000Y-92026000D01*
X205990000Y-92026000D02*
X212410000Y-92026000D01*
X212410000Y-92026000D02*
X212410000Y-92356000D01*
X205990000Y-94316000D02*
X205990000Y-94646000D01*
X205990000Y-94646000D02*
X212410000Y-94646000D01*
X212410000Y-94646000D02*
X212410000Y-94316000D01*
X205990000Y-89054000D02*
X205990000Y-88724000D01*
X205990000Y-88724000D02*
X212410000Y-88724000D01*
X212410000Y-88724000D02*
X212410000Y-89054000D01*
X205990000Y-91014000D02*
X205990000Y-91344000D01*
X205990000Y-91344000D02*
X212410000Y-91344000D01*
X212410000Y-91344000D02*
X212410000Y-91014000D01*
X224286000Y-101600000D02*
G75*
G03X224286000Y-101600000I-2286000J0D01*
G01*
X165286000Y-101600000D02*
G75*
G03X165286000Y-101600000I-2286000J0D01*
G01*
X165286000Y-42600000D02*
G75*
G03X165286000Y-42600000I-2286000J0D01*
G01*
X224286000Y-42600000D02*
G75*
G03X224286000Y-42600000I-2286000J0D01*
G01*
X178325000Y-88505000D02*
X178325000Y-88635000D01*
X178325000Y-88635000D02*
X173005000Y-88635000D01*
X173005000Y-88635000D02*
X173005000Y-88505000D01*
X178325000Y-85945000D02*
X178325000Y-85815000D01*
X178325000Y-85815000D02*
X173005000Y-85815000D01*
X173005000Y-85815000D02*
X173005000Y-85945000D01*
X177485000Y-88635000D02*
X177485000Y-85815000D01*
X222080000Y-63750000D02*
X222210000Y-63750000D01*
X222210000Y-63750000D02*
X222210000Y-69070000D01*
X222210000Y-69070000D02*
X222080000Y-69070000D01*
X219520000Y-63750000D02*
X219390000Y-63750000D01*
X219390000Y-63750000D02*
X219390000Y-69070000D01*
X219390000Y-69070000D02*
X219520000Y-69070000D01*
X222210000Y-64590000D02*
X219390000Y-64590000D01*
X175694000Y-76246000D02*
X172094000Y-76246000D01*
X175732478Y-76257522D02*
G75*
G02X173894000Y-80696000I-1838478J-1838478D01*
G01*
X172055522Y-76257522D02*
G75*
G03X173894000Y-80696000I1838478J-1838478D01*
G01*
X220524335Y-80573392D02*
G75*
G03X217292000Y-80416484I-1672335J-1078608D01*
G01*
X220524335Y-82730608D02*
G75*
G02X217292000Y-82887516I-1672335J1078608D01*
G01*
X219893130Y-80572163D02*
G75*
G03X217811039Y-80572000I-1041130J-1079837D01*
G01*
X219893130Y-82731837D02*
G75*
G02X217811039Y-82732000I-1041130J1079837D01*
G01*
X217292000Y-80416000D02*
X217292000Y-80572000D01*
X217292000Y-82732000D02*
X217292000Y-82888000D01*
X205990000Y-85752000D02*
X205990000Y-85422000D01*
X205990000Y-85422000D02*
X212410000Y-85422000D01*
X212410000Y-85422000D02*
X212410000Y-85752000D01*
X205990000Y-87712000D02*
X205990000Y-88042000D01*
X205990000Y-88042000D02*
X212410000Y-88042000D01*
X212410000Y-88042000D02*
X212410000Y-87712000D01*
X166286000Y-51600000D02*
G75*
G03X166286000Y-51600000I-2286000J0D01*
G01*
X177536000Y-51600000D02*
G75*
G03X177536000Y-51600000I-2286000J0D01*
G01*
X206400000Y-51035000D02*
X206400000Y-47435000D01*
X205672795Y-51559184D02*
G75*
G03X206400000Y-51035000I-1122795J2324184D01*
G01*
X203451193Y-51591400D02*
G75*
G02X201950000Y-49235000I1098807J2356400D01*
G01*
X203451193Y-46878600D02*
G75*
G03X201950000Y-49235000I1098807J-2356400D01*
G01*
X205672795Y-46910816D02*
G75*
G02X206400000Y-47435000I-1122795J-2324184D01*
G01*
X198680000Y-46050000D02*
X198680000Y-40930000D01*
X201300000Y-46050000D02*
X201300000Y-40930000D01*
X198680000Y-46050000D02*
X198994000Y-46050000D01*
X200986000Y-46050000D02*
X201300000Y-46050000D01*
X198680000Y-40930000D02*
X198994000Y-40930000D01*
X200986000Y-40930000D02*
X201300000Y-40930000D01*
X214696000Y-47580000D02*
X214696000Y-47910000D01*
X214696000Y-47910000D02*
X208276000Y-47910000D01*
X208276000Y-47910000D02*
X208276000Y-47580000D01*
X214696000Y-45620000D02*
X214696000Y-45290000D01*
X214696000Y-45290000D02*
X208276000Y-45290000D01*
X208276000Y-45290000D02*
X208276000Y-45620000D01*
D11*
X175518334Y-83898381D02*
X175185000Y-83422190D01*
X174946905Y-83898381D02*
X174946905Y-82898381D01*
X175327858Y-82898381D01*
X175423096Y-82946000D01*
X175470715Y-82993619D01*
X175518334Y-83088857D01*
X175518334Y-83231714D01*
X175470715Y-83326952D01*
X175423096Y-83374571D01*
X175327858Y-83422190D01*
X174946905Y-83422190D01*
X175899286Y-82993619D02*
X175946905Y-82946000D01*
X176042143Y-82898381D01*
X176280239Y-82898381D01*
X176375477Y-82946000D01*
X176423096Y-82993619D01*
X176470715Y-83088857D01*
X176470715Y-83184095D01*
X176423096Y-83326952D01*
X175851667Y-83898381D01*
X176470715Y-83898381D01*
X169652381Y-58900000D02*
X169176190Y-59233334D01*
X169652381Y-59471429D02*
X168652381Y-59471429D01*
X168652381Y-59090476D01*
X168700000Y-58995238D01*
X168747619Y-58947619D01*
X168842857Y-58900000D01*
X168985714Y-58900000D01*
X169080952Y-58947619D01*
X169128571Y-58995238D01*
X169176190Y-59090476D01*
X169176190Y-59471429D01*
X169652381Y-57995238D02*
X169652381Y-58471429D01*
X168652381Y-58471429D01*
X169176190Y-57471429D02*
X169652381Y-57471429D01*
X168652381Y-57804762D02*
X169176190Y-57471429D01*
X168652381Y-57138095D01*
X169652381Y-56280952D02*
X169652381Y-56852381D01*
X169652381Y-56566667D02*
X168652381Y-56566667D01*
X168795238Y-56661905D01*
X168890476Y-56757143D01*
X168938095Y-56852381D01*
X163604762Y-67209524D02*
X163652381Y-67066667D01*
X163652381Y-66828571D01*
X163604762Y-66733333D01*
X163557143Y-66685714D01*
X163461905Y-66638095D01*
X163366667Y-66638095D01*
X163271429Y-66685714D01*
X163223810Y-66733333D01*
X163176190Y-66828571D01*
X163128571Y-67019048D01*
X163080952Y-67114286D01*
X163033333Y-67161905D01*
X162938095Y-67209524D01*
X162842857Y-67209524D01*
X162747619Y-67161905D01*
X162700000Y-67114286D01*
X162652381Y-67019048D01*
X162652381Y-66780952D01*
X162700000Y-66638095D01*
X163652381Y-65638095D02*
X163176190Y-65971429D01*
X163652381Y-66209524D02*
X162652381Y-66209524D01*
X162652381Y-65828571D01*
X162700000Y-65733333D01*
X162747619Y-65685714D01*
X162842857Y-65638095D01*
X162985714Y-65638095D01*
X163080952Y-65685714D01*
X163128571Y-65733333D01*
X163176190Y-65828571D01*
X163176190Y-66209524D01*
X163652381Y-65209524D02*
X162652381Y-65209524D01*
X162652381Y-64971429D01*
X162700000Y-64828571D01*
X162795238Y-64733333D01*
X162890476Y-64685714D01*
X163080952Y-64638095D01*
X163223810Y-64638095D01*
X163414286Y-64685714D01*
X163509524Y-64733333D01*
X163604762Y-64828571D01*
X163652381Y-64971429D01*
X163652381Y-65209524D01*
X163652381Y-63638095D02*
X163176190Y-63971429D01*
X163652381Y-64209524D02*
X162652381Y-64209524D01*
X162652381Y-63828571D01*
X162700000Y-63733333D01*
X162747619Y-63685714D01*
X162842857Y-63638095D01*
X162985714Y-63638095D01*
X163080952Y-63685714D01*
X163128571Y-63733333D01*
X163176190Y-63828571D01*
X163176190Y-64209524D01*
X163604762Y-62828571D02*
X163652381Y-62923809D01*
X163652381Y-63114286D01*
X163604762Y-63209524D01*
X163509524Y-63257143D01*
X163128571Y-63257143D01*
X163033333Y-63209524D01*
X162985714Y-63114286D01*
X162985714Y-62923809D01*
X163033333Y-62828571D01*
X163128571Y-62780952D01*
X163223810Y-62780952D01*
X163319048Y-63257143D01*
X163652381Y-62209524D02*
X163604762Y-62304762D01*
X163509524Y-62352381D01*
X162652381Y-62352381D01*
X163652381Y-61399999D02*
X163128571Y-61399999D01*
X163033333Y-61447618D01*
X162985714Y-61542856D01*
X162985714Y-61733333D01*
X163033333Y-61828571D01*
X163604762Y-61399999D02*
X163652381Y-61495237D01*
X163652381Y-61733333D01*
X163604762Y-61828571D01*
X163509524Y-61876190D01*
X163414286Y-61876190D01*
X163319048Y-61828571D01*
X163271429Y-61733333D01*
X163271429Y-61495237D01*
X163223810Y-61399999D01*
X162985714Y-61019047D02*
X163652381Y-60780952D01*
X162985714Y-60542856D02*
X163652381Y-60780952D01*
X163890476Y-60876190D01*
X163938095Y-60923809D01*
X163985714Y-61019047D01*
X190562857Y-98870000D02*
X191134286Y-98870000D01*
X190448572Y-99212857D02*
X190848572Y-98012857D01*
X191248572Y-99212857D01*
X192277143Y-99212857D02*
X191591428Y-99212857D01*
X191934286Y-99212857D02*
X191934286Y-98012857D01*
X191820000Y-98184286D01*
X191705714Y-98298571D01*
X191591428Y-98355714D01*
X222606381Y-96106095D02*
X221606381Y-96106095D01*
X221606381Y-95868000D01*
X221654000Y-95725142D01*
X221749238Y-95629904D01*
X221844476Y-95582285D01*
X222034952Y-95534666D01*
X222177810Y-95534666D01*
X222368286Y-95582285D01*
X222463524Y-95629904D01*
X222558762Y-95725142D01*
X222606381Y-95868000D01*
X222606381Y-96106095D01*
X222606381Y-94582285D02*
X222606381Y-95153714D01*
X222606381Y-94868000D02*
X221606381Y-94868000D01*
X221749238Y-94963238D01*
X221844476Y-95058476D01*
X221892095Y-95153714D01*
X222606381Y-91280095D02*
X221606381Y-91280095D01*
X221606381Y-91042000D01*
X221654000Y-90899142D01*
X221749238Y-90803904D01*
X221844476Y-90756285D01*
X222034952Y-90708666D01*
X222177810Y-90708666D01*
X222368286Y-90756285D01*
X222463524Y-90803904D01*
X222558762Y-90899142D01*
X222606381Y-91042000D01*
X222606381Y-91280095D01*
X221701619Y-90327714D02*
X221654000Y-90280095D01*
X221606381Y-90184857D01*
X221606381Y-89946761D01*
X221654000Y-89851523D01*
X221701619Y-89803904D01*
X221796857Y-89756285D01*
X221892095Y-89756285D01*
X222034952Y-89803904D01*
X222606381Y-90375333D01*
X222606381Y-89756285D01*
X222606381Y-86708095D02*
X221606381Y-86708095D01*
X221606381Y-86470000D01*
X221654000Y-86327142D01*
X221749238Y-86231904D01*
X221844476Y-86184285D01*
X222034952Y-86136666D01*
X222177810Y-86136666D01*
X222368286Y-86184285D01*
X222463524Y-86231904D01*
X222558762Y-86327142D01*
X222606381Y-86470000D01*
X222606381Y-86708095D01*
X221606381Y-85803333D02*
X221606381Y-85184285D01*
X221987333Y-85517619D01*
X221987333Y-85374761D01*
X222034952Y-85279523D01*
X222082571Y-85231904D01*
X222177810Y-85184285D01*
X222415905Y-85184285D01*
X222511143Y-85231904D01*
X222558762Y-85279523D01*
X222606381Y-85374761D01*
X222606381Y-85660476D01*
X222558762Y-85755714D01*
X222511143Y-85803333D01*
X212051143Y-50037381D02*
X211574952Y-50037381D01*
X211574952Y-49037381D01*
X212336857Y-49989762D02*
X212479714Y-50037381D01*
X212717810Y-50037381D01*
X212813048Y-49989762D01*
X212860667Y-49942143D01*
X212908286Y-49846905D01*
X212908286Y-49751667D01*
X212860667Y-49656429D01*
X212813048Y-49608810D01*
X212717810Y-49561190D01*
X212527333Y-49513571D01*
X212432095Y-49465952D01*
X212384476Y-49418333D01*
X212336857Y-49323095D01*
X212336857Y-49227857D01*
X212384476Y-49132619D01*
X212432095Y-49085000D01*
X212527333Y-49037381D01*
X212765429Y-49037381D01*
X212908286Y-49085000D01*
X213860667Y-50037381D02*
X213289238Y-50037381D01*
X213574952Y-50037381D02*
X213574952Y-49037381D01*
X213479714Y-49180238D01*
X213384476Y-49275476D01*
X213289238Y-49323095D01*
X216093619Y-76159238D02*
X216046000Y-76254476D01*
X215950762Y-76349714D01*
X215807905Y-76492571D01*
X215760286Y-76587810D01*
X215760286Y-76683048D01*
X215998381Y-76635429D02*
X215950762Y-76730667D01*
X215855524Y-76825905D01*
X215665048Y-76873524D01*
X215331714Y-76873524D01*
X215141238Y-76825905D01*
X215046000Y-76730667D01*
X214998381Y-76635429D01*
X214998381Y-76444952D01*
X215046000Y-76349714D01*
X215141238Y-76254476D01*
X215331714Y-76206857D01*
X215665048Y-76206857D01*
X215855524Y-76254476D01*
X215950762Y-76349714D01*
X215998381Y-76444952D01*
X215998381Y-76635429D01*
X215331714Y-75349714D02*
X215998381Y-75349714D01*
X214950762Y-75587810D02*
X215665048Y-75825905D01*
X215665048Y-75206857D01*
X196353334Y-49432381D02*
X196020000Y-48956190D01*
X195781905Y-49432381D02*
X195781905Y-48432381D01*
X196162858Y-48432381D01*
X196258096Y-48480000D01*
X196305715Y-48527619D01*
X196353334Y-48622857D01*
X196353334Y-48765714D01*
X196305715Y-48860952D01*
X196258096Y-48908571D01*
X196162858Y-48956190D01*
X195781905Y-48956190D01*
X197305715Y-49432381D02*
X196734286Y-49432381D01*
X197020000Y-49432381D02*
X197020000Y-48432381D01*
X196924762Y-48575238D01*
X196829524Y-48670476D01*
X196734286Y-48718095D01*
X218206381Y-66576666D02*
X217730190Y-66910000D01*
X218206381Y-67148095D02*
X217206381Y-67148095D01*
X217206381Y-66767142D01*
X217254000Y-66671904D01*
X217301619Y-66624285D01*
X217396857Y-66576666D01*
X217539714Y-66576666D01*
X217634952Y-66624285D01*
X217682571Y-66671904D01*
X217730190Y-66767142D01*
X217730190Y-67148095D01*
X217206381Y-66243333D02*
X217206381Y-65576666D01*
X218206381Y-66005238D01*
X208811143Y-58736381D02*
X208477809Y-58260190D01*
X208239714Y-58736381D02*
X208239714Y-57736381D01*
X208620667Y-57736381D01*
X208715905Y-57784000D01*
X208763524Y-57831619D01*
X208811143Y-57926857D01*
X208811143Y-58069714D01*
X208763524Y-58164952D01*
X208715905Y-58212571D01*
X208620667Y-58260190D01*
X208239714Y-58260190D01*
X209192095Y-57831619D02*
X209239714Y-57784000D01*
X209334952Y-57736381D01*
X209573048Y-57736381D01*
X209668286Y-57784000D01*
X209715905Y-57831619D01*
X209763524Y-57926857D01*
X209763524Y-58022095D01*
X209715905Y-58164952D01*
X209144476Y-58736381D01*
X209763524Y-58736381D01*
X210382571Y-57736381D02*
X210477810Y-57736381D01*
X210573048Y-57784000D01*
X210620667Y-57831619D01*
X210668286Y-57926857D01*
X210715905Y-58117333D01*
X210715905Y-58355429D01*
X210668286Y-58545905D01*
X210620667Y-58641143D01*
X210573048Y-58688762D01*
X210477810Y-58736381D01*
X210382571Y-58736381D01*
X210287333Y-58688762D01*
X210239714Y-58641143D01*
X210192095Y-58545905D01*
X210144476Y-58355429D01*
X210144476Y-58117333D01*
X210192095Y-57926857D01*
X210239714Y-57831619D01*
X210287333Y-57784000D01*
X210382571Y-57736381D01*
X220202381Y-55773857D02*
X219726190Y-56107191D01*
X220202381Y-56345286D02*
X219202381Y-56345286D01*
X219202381Y-55964333D01*
X219250000Y-55869095D01*
X219297619Y-55821476D01*
X219392857Y-55773857D01*
X219535714Y-55773857D01*
X219630952Y-55821476D01*
X219678571Y-55869095D01*
X219726190Y-55964333D01*
X219726190Y-56345286D01*
X219297619Y-55392905D02*
X219250000Y-55345286D01*
X219202381Y-55250048D01*
X219202381Y-55011952D01*
X219250000Y-54916714D01*
X219297619Y-54869095D01*
X219392857Y-54821476D01*
X219488095Y-54821476D01*
X219630952Y-54869095D01*
X220202381Y-55440524D01*
X220202381Y-54821476D01*
X220202381Y-53869095D02*
X220202381Y-54440524D01*
X220202381Y-54154810D02*
X219202381Y-54154810D01*
X219345238Y-54250048D01*
X219440476Y-54345286D01*
X219488095Y-54440524D01*
X203762762Y-82731333D02*
X203810381Y-82588476D01*
X203810381Y-82350380D01*
X203762762Y-82255142D01*
X203715143Y-82207523D01*
X203619905Y-82159904D01*
X203524667Y-82159904D01*
X203429429Y-82207523D01*
X203381810Y-82255142D01*
X203334190Y-82350380D01*
X203286571Y-82540857D01*
X203238952Y-82636095D01*
X203191333Y-82683714D01*
X203096095Y-82731333D01*
X203000857Y-82731333D01*
X202905619Y-82683714D01*
X202858000Y-82636095D01*
X202810381Y-82540857D01*
X202810381Y-82302761D01*
X202858000Y-82159904D01*
X202810381Y-81826571D02*
X203810381Y-81588476D01*
X203096095Y-81397999D01*
X203810381Y-81207523D01*
X202810381Y-80969428D01*
X203810381Y-80064666D02*
X203810381Y-80636095D01*
X203810381Y-80350381D02*
X202810381Y-80350381D01*
X202953238Y-80445619D01*
X203048476Y-80540857D01*
X203096095Y-80636095D01*
X204016762Y-74857333D02*
X204064381Y-74714476D01*
X204064381Y-74476380D01*
X204016762Y-74381142D01*
X203969143Y-74333523D01*
X203873905Y-74285904D01*
X203778667Y-74285904D01*
X203683429Y-74333523D01*
X203635810Y-74381142D01*
X203588190Y-74476380D01*
X203540571Y-74666857D01*
X203492952Y-74762095D01*
X203445333Y-74809714D01*
X203350095Y-74857333D01*
X203254857Y-74857333D01*
X203159619Y-74809714D01*
X203112000Y-74762095D01*
X203064381Y-74666857D01*
X203064381Y-74428761D01*
X203112000Y-74285904D01*
X203064381Y-73952571D02*
X204064381Y-73714476D01*
X203350095Y-73523999D01*
X204064381Y-73333523D01*
X203064381Y-73095428D01*
X203159619Y-72762095D02*
X203112000Y-72714476D01*
X203064381Y-72619238D01*
X203064381Y-72381142D01*
X203112000Y-72285904D01*
X203159619Y-72238285D01*
X203254857Y-72190666D01*
X203350095Y-72190666D01*
X203492952Y-72238285D01*
X204064381Y-72809714D01*
X204064381Y-72190666D01*
X204016762Y-65967333D02*
X204064381Y-65824476D01*
X204064381Y-65586380D01*
X204016762Y-65491142D01*
X203969143Y-65443523D01*
X203873905Y-65395904D01*
X203778667Y-65395904D01*
X203683429Y-65443523D01*
X203635810Y-65491142D01*
X203588190Y-65586380D01*
X203540571Y-65776857D01*
X203492952Y-65872095D01*
X203445333Y-65919714D01*
X203350095Y-65967333D01*
X203254857Y-65967333D01*
X203159619Y-65919714D01*
X203112000Y-65872095D01*
X203064381Y-65776857D01*
X203064381Y-65538761D01*
X203112000Y-65395904D01*
X203064381Y-65062571D02*
X204064381Y-64824476D01*
X203350095Y-64633999D01*
X204064381Y-64443523D01*
X203064381Y-64205428D01*
X203064381Y-63919714D02*
X203064381Y-63300666D01*
X203445333Y-63634000D01*
X203445333Y-63491142D01*
X203492952Y-63395904D01*
X203540571Y-63348285D01*
X203635810Y-63300666D01*
X203873905Y-63300666D01*
X203969143Y-63348285D01*
X204016762Y-63395904D01*
X204064381Y-63491142D01*
X204064381Y-63776857D01*
X204016762Y-63872095D01*
X203969143Y-63919714D01*
X208779334Y-97090381D02*
X208446000Y-96614190D01*
X208207905Y-97090381D02*
X208207905Y-96090381D01*
X208588858Y-96090381D01*
X208684096Y-96138000D01*
X208731715Y-96185619D01*
X208779334Y-96280857D01*
X208779334Y-96423714D01*
X208731715Y-96518952D01*
X208684096Y-96566571D01*
X208588858Y-96614190D01*
X208207905Y-96614190D01*
X209350762Y-96518952D02*
X209255524Y-96471333D01*
X209207905Y-96423714D01*
X209160286Y-96328476D01*
X209160286Y-96280857D01*
X209207905Y-96185619D01*
X209255524Y-96138000D01*
X209350762Y-96090381D01*
X209541239Y-96090381D01*
X209636477Y-96138000D01*
X209684096Y-96185619D01*
X209731715Y-96280857D01*
X209731715Y-96328476D01*
X209684096Y-96423714D01*
X209636477Y-96471333D01*
X209541239Y-96518952D01*
X209350762Y-96518952D01*
X209255524Y-96566571D01*
X209207905Y-96614190D01*
X209160286Y-96709429D01*
X209160286Y-96899905D01*
X209207905Y-96995143D01*
X209255524Y-97042762D01*
X209350762Y-97090381D01*
X209541239Y-97090381D01*
X209636477Y-97042762D01*
X209684096Y-96995143D01*
X209731715Y-96899905D01*
X209731715Y-96709429D01*
X209684096Y-96614190D01*
X209636477Y-96566571D01*
X209541239Y-96518952D01*
X208779334Y-93788381D02*
X208446000Y-93312190D01*
X208207905Y-93788381D02*
X208207905Y-92788381D01*
X208588858Y-92788381D01*
X208684096Y-92836000D01*
X208731715Y-92883619D01*
X208779334Y-92978857D01*
X208779334Y-93121714D01*
X208731715Y-93216952D01*
X208684096Y-93264571D01*
X208588858Y-93312190D01*
X208207905Y-93312190D01*
X209255524Y-93788381D02*
X209446000Y-93788381D01*
X209541239Y-93740762D01*
X209588858Y-93693143D01*
X209684096Y-93550286D01*
X209731715Y-93359810D01*
X209731715Y-92978857D01*
X209684096Y-92883619D01*
X209636477Y-92836000D01*
X209541239Y-92788381D01*
X209350762Y-92788381D01*
X209255524Y-92836000D01*
X209207905Y-92883619D01*
X209160286Y-92978857D01*
X209160286Y-93216952D01*
X209207905Y-93312190D01*
X209255524Y-93359810D01*
X209350762Y-93407429D01*
X209541239Y-93407429D01*
X209636477Y-93359810D01*
X209684096Y-93312190D01*
X209731715Y-93216952D01*
X208461143Y-90604381D02*
X208127809Y-90128190D01*
X207889714Y-90604381D02*
X207889714Y-89604381D01*
X208270667Y-89604381D01*
X208365905Y-89652000D01*
X208413524Y-89699619D01*
X208461143Y-89794857D01*
X208461143Y-89937714D01*
X208413524Y-90032952D01*
X208365905Y-90080571D01*
X208270667Y-90128190D01*
X207889714Y-90128190D01*
X209413524Y-90604381D02*
X208842095Y-90604381D01*
X209127809Y-90604381D02*
X209127809Y-89604381D01*
X209032571Y-89747238D01*
X208937333Y-89842476D01*
X208842095Y-89890095D01*
X210032571Y-89604381D02*
X210127810Y-89604381D01*
X210223048Y-89652000D01*
X210270667Y-89699619D01*
X210318286Y-89794857D01*
X210365905Y-89985333D01*
X210365905Y-90223429D01*
X210318286Y-90413905D01*
X210270667Y-90509143D01*
X210223048Y-90556762D01*
X210127810Y-90604381D01*
X210032571Y-90604381D01*
X209937333Y-90556762D01*
X209889714Y-90509143D01*
X209842095Y-90413905D01*
X209794476Y-90223429D01*
X209794476Y-89985333D01*
X209842095Y-89794857D01*
X209889714Y-89699619D01*
X209937333Y-89652000D01*
X210032571Y-89604381D01*
X221666667Y-97052381D02*
X221666667Y-97766667D01*
X221619047Y-97909524D01*
X221523809Y-98004762D01*
X221380952Y-98052381D01*
X221285714Y-98052381D01*
X222666667Y-98052381D02*
X222095238Y-98052381D01*
X222380952Y-98052381D02*
X222380952Y-97052381D01*
X222285714Y-97195238D01*
X222190476Y-97290476D01*
X222095238Y-97338095D01*
X162652667Y-97614381D02*
X162652667Y-98328667D01*
X162605047Y-98471524D01*
X162509809Y-98566762D01*
X162366952Y-98614381D01*
X162271714Y-98614381D01*
X163081238Y-97709619D02*
X163128857Y-97662000D01*
X163224095Y-97614381D01*
X163462191Y-97614381D01*
X163557429Y-97662000D01*
X163605048Y-97709619D01*
X163652667Y-97804857D01*
X163652667Y-97900095D01*
X163605048Y-98042952D01*
X163033619Y-98614381D01*
X163652667Y-98614381D01*
X162666667Y-46052381D02*
X162666667Y-46766667D01*
X162619047Y-46909524D01*
X162523809Y-47004762D01*
X162380952Y-47052381D01*
X162285714Y-47052381D01*
X163047619Y-46052381D02*
X163666667Y-46052381D01*
X163333333Y-46433333D01*
X163476191Y-46433333D01*
X163571429Y-46480952D01*
X163619048Y-46528571D01*
X163666667Y-46623810D01*
X163666667Y-46861905D01*
X163619048Y-46957143D01*
X163571429Y-47004762D01*
X163476191Y-47052381D01*
X163190476Y-47052381D01*
X163095238Y-47004762D01*
X163047619Y-46957143D01*
X221666667Y-46052381D02*
X221666667Y-46766667D01*
X221619047Y-46909524D01*
X221523809Y-47004762D01*
X221380952Y-47052381D01*
X221285714Y-47052381D01*
X222571429Y-46385714D02*
X222571429Y-47052381D01*
X222333333Y-46004762D02*
X222095238Y-46719048D01*
X222714286Y-46719048D01*
X174926905Y-87677381D02*
X174926905Y-86677381D01*
X175165000Y-86677381D01*
X175307858Y-86725000D01*
X175403096Y-86820238D01*
X175450715Y-86915476D01*
X175498334Y-87105952D01*
X175498334Y-87248810D01*
X175450715Y-87439286D01*
X175403096Y-87534524D01*
X175307858Y-87629762D01*
X175165000Y-87677381D01*
X174926905Y-87677381D01*
X176355477Y-87010714D02*
X176355477Y-87677381D01*
X176117381Y-86629762D02*
X175879286Y-87344048D01*
X176498334Y-87344048D01*
X221336381Y-67626286D02*
X220336381Y-67626286D01*
X220336381Y-67388191D01*
X220384000Y-67245333D01*
X220479238Y-67150095D01*
X220574476Y-67102476D01*
X220764952Y-67054857D01*
X220907810Y-67054857D01*
X221098286Y-67102476D01*
X221193524Y-67150095D01*
X221288762Y-67245333D01*
X221336381Y-67388191D01*
X221336381Y-67626286D01*
X221336381Y-66102476D02*
X221336381Y-66673905D01*
X221336381Y-66388191D02*
X220336381Y-66388191D01*
X220479238Y-66483429D01*
X220574476Y-66578667D01*
X220622095Y-66673905D01*
X220336381Y-65245333D02*
X220336381Y-65435810D01*
X220384000Y-65531048D01*
X220431619Y-65578667D01*
X220574476Y-65673905D01*
X220764952Y-65721524D01*
X221145905Y-65721524D01*
X221241143Y-65673905D01*
X221288762Y-65626286D01*
X221336381Y-65531048D01*
X221336381Y-65340571D01*
X221288762Y-65245333D01*
X221241143Y-65197714D01*
X221145905Y-65150095D01*
X220907810Y-65150095D01*
X220812571Y-65197714D01*
X220764952Y-65245333D01*
X220717333Y-65340571D01*
X220717333Y-65531048D01*
X220764952Y-65626286D01*
X220812571Y-65673905D01*
X220907810Y-65721524D01*
X174441619Y-75143238D02*
X174394000Y-75238476D01*
X174298762Y-75333714D01*
X174155905Y-75476571D01*
X174108286Y-75571810D01*
X174108286Y-75667048D01*
X174346381Y-75619429D02*
X174298762Y-75714667D01*
X174203524Y-75809905D01*
X174013048Y-75857524D01*
X173679714Y-75857524D01*
X173489238Y-75809905D01*
X173394000Y-75714667D01*
X173346381Y-75619429D01*
X173346381Y-75428952D01*
X173394000Y-75333714D01*
X173489238Y-75238476D01*
X173679714Y-75190857D01*
X174013048Y-75190857D01*
X174203524Y-75238476D01*
X174298762Y-75333714D01*
X174346381Y-75428952D01*
X174346381Y-75619429D01*
X174346381Y-74238476D02*
X174346381Y-74809905D01*
X174346381Y-74524191D02*
X173346381Y-74524191D01*
X173489238Y-74619429D01*
X173584476Y-74714667D01*
X173632095Y-74809905D01*
X222606381Y-82390095D02*
X221606381Y-82390095D01*
X221606381Y-82152000D01*
X221654000Y-82009142D01*
X221749238Y-81913904D01*
X221844476Y-81866285D01*
X222034952Y-81818666D01*
X222177810Y-81818666D01*
X222368286Y-81866285D01*
X222463524Y-81913904D01*
X222558762Y-82009142D01*
X222606381Y-82152000D01*
X222606381Y-82390095D01*
X221606381Y-80913904D02*
X221606381Y-81390095D01*
X222082571Y-81437714D01*
X222034952Y-81390095D01*
X221987333Y-81294857D01*
X221987333Y-81056761D01*
X222034952Y-80961523D01*
X222082571Y-80913904D01*
X222177810Y-80866285D01*
X222415905Y-80866285D01*
X222511143Y-80913904D01*
X222558762Y-80961523D01*
X222606381Y-81056761D01*
X222606381Y-81294857D01*
X222558762Y-81390095D01*
X222511143Y-81437714D01*
X208557143Y-87184381D02*
X208223809Y-86708190D01*
X207985714Y-87184381D02*
X207985714Y-86184381D01*
X208366667Y-86184381D01*
X208461905Y-86232000D01*
X208509524Y-86279619D01*
X208557143Y-86374857D01*
X208557143Y-86517714D01*
X208509524Y-86612952D01*
X208461905Y-86660571D01*
X208366667Y-86708190D01*
X207985714Y-86708190D01*
X209509524Y-87184381D02*
X208938095Y-87184381D01*
X209223809Y-87184381D02*
X209223809Y-86184381D01*
X209128571Y-86327238D01*
X209033333Y-86422476D01*
X208938095Y-86470095D01*
X209842857Y-86184381D02*
X210461905Y-86184381D01*
X210128571Y-86565333D01*
X210271429Y-86565333D01*
X210366667Y-86612952D01*
X210414286Y-86660571D01*
X210461905Y-86755810D01*
X210461905Y-86993905D01*
X210414286Y-87089143D01*
X210366667Y-87136762D01*
X210271429Y-87184381D01*
X209985714Y-87184381D01*
X209890476Y-87136762D01*
X209842857Y-87089143D01*
X167252381Y-51883333D02*
X167966667Y-51883333D01*
X168109524Y-51930953D01*
X168204762Y-52026191D01*
X168252381Y-52169048D01*
X168252381Y-52264286D01*
X167252381Y-50930952D02*
X167252381Y-51407143D01*
X167728571Y-51454762D01*
X167680952Y-51407143D01*
X167633333Y-51311905D01*
X167633333Y-51073809D01*
X167680952Y-50978571D01*
X167728571Y-50930952D01*
X167823810Y-50883333D01*
X168061905Y-50883333D01*
X168157143Y-50930952D01*
X168204762Y-50978571D01*
X168252381Y-51073809D01*
X168252381Y-51311905D01*
X168204762Y-51407143D01*
X168157143Y-51454762D01*
X178258381Y-51933333D02*
X178972667Y-51933333D01*
X179115524Y-51980953D01*
X179210762Y-52076191D01*
X179258381Y-52219048D01*
X179258381Y-52314286D01*
X178258381Y-51028571D02*
X178258381Y-51219048D01*
X178306000Y-51314286D01*
X178353619Y-51361905D01*
X178496476Y-51457143D01*
X178686952Y-51504762D01*
X179067905Y-51504762D01*
X179163143Y-51457143D01*
X179210762Y-51409524D01*
X179258381Y-51314286D01*
X179258381Y-51123809D01*
X179210762Y-51028571D01*
X179163143Y-50980952D01*
X179067905Y-50933333D01*
X178829810Y-50933333D01*
X178734571Y-50980952D01*
X178686952Y-51028571D01*
X178639333Y-51123809D01*
X178639333Y-51314286D01*
X178686952Y-51409524D01*
X178734571Y-51457143D01*
X178829810Y-51504762D01*
X203866095Y-53164381D02*
X203866095Y-53973905D01*
X203913714Y-54069143D01*
X203961333Y-54116762D01*
X204056571Y-54164381D01*
X204247048Y-54164381D01*
X204342286Y-54116762D01*
X204389905Y-54069143D01*
X204437524Y-53973905D01*
X204437524Y-53164381D01*
X205437524Y-54164381D02*
X204866095Y-54164381D01*
X205151809Y-54164381D02*
X205151809Y-53164381D01*
X205056571Y-53307238D01*
X204961333Y-53402476D01*
X204866095Y-53450095D01*
X200322143Y-43681666D02*
X200369762Y-43729285D01*
X200417381Y-43872142D01*
X200417381Y-43967380D01*
X200369762Y-44110238D01*
X200274524Y-44205476D01*
X200179286Y-44253095D01*
X199988810Y-44300714D01*
X199845952Y-44300714D01*
X199655476Y-44253095D01*
X199560238Y-44205476D01*
X199465000Y-44110238D01*
X199417381Y-43967380D01*
X199417381Y-43872142D01*
X199465000Y-43729285D01*
X199512619Y-43681666D01*
X200417381Y-42729285D02*
X200417381Y-43300714D01*
X200417381Y-43015000D02*
X199417381Y-43015000D01*
X199560238Y-43110238D01*
X199655476Y-43205476D01*
X199703095Y-43300714D01*
X211383334Y-47055382D02*
X211050000Y-46579191D01*
X210811905Y-47055382D02*
X210811905Y-46055382D01*
X211192858Y-46055382D01*
X211288096Y-46103001D01*
X211335715Y-46150620D01*
X211383334Y-46245858D01*
X211383334Y-46388715D01*
X211335715Y-46483953D01*
X211288096Y-46531572D01*
X211192858Y-46579191D01*
X210811905Y-46579191D01*
X211716667Y-46055382D02*
X212335715Y-46055382D01*
X212002381Y-46436334D01*
X212145239Y-46436334D01*
X212240477Y-46483953D01*
X212288096Y-46531572D01*
X212335715Y-46626811D01*
X212335715Y-46864906D01*
X212288096Y-46960144D01*
X212240477Y-47007763D01*
X212145239Y-47055382D01*
X211859524Y-47055382D01*
X211764286Y-47007763D01*
X211716667Y-46960144D01*
M02*
